<?xml version="1.0" encoding="UTF-8"?><svg id="Layer_1" xmlns="http://www.w3.org/2000/svg" xmlns:xlink="http://www.w3.org/1999/xlink" viewBox="0 0 125.11 30"><defs><style>.cls-1{fill:none;}.cls-2{fill:url(#radial-gradient-7);}.cls-3{fill:url(#radial-gradient-6);}.cls-4{fill:url(#radial-gradient-5);}.cls-5{fill:url(#radial-gradient-4);}.cls-6{fill:url(#radial-gradient-8);}.cls-7{fill:url(#radial-gradient-3);}.cls-8{fill:url(#radial-gradient-2);}.cls-9{fill:url(#linear-gradient-2);}.cls-10{fill:url(#radial-gradient);}.cls-11{fill:url(#linear-gradient);}.cls-12{fill:#fff;}.cls-13{clip-path:url(#clippath);}</style><clipPath id="clippath"><rect class="cls-1" x=".08" width="39" height="30"/></clipPath><radialGradient id="radial-gradient" cx="-702.61" cy="370.82" fx="-702.61" fy="370.82" r="1" gradientTransform="translate(8881.55 4678.42) scale(12.61 -12.61)" gradientUnits="userSpaceOnUse"><stop offset="0" stop-color="#08d7ff"/><stop offset="1" stop-color="#3174ff"/></radialGradient><radialGradient id="radial-gradient-2" cx="-702.61" cy="370.82" fx="-702.61" fy="370.82" r="1" gradientTransform="translate(8881.55 4678.42) scale(12.61 -12.61)" gradientUnits="userSpaceOnUse"><stop offset="0" stop-color="#11d8ff"/><stop offset="1" stop-color="#3a7aff"/></radialGradient><radialGradient id="radial-gradient-3" cx="-703.86" cy="371.43" fx="-703.86" fy="371.43" r="1" gradientTransform="translate(9084.18 4784.81) scale(12.88 -12.88)" xlink:href="#radial-gradient"/><radialGradient id="radial-gradient-4" cx="-703.86" cy="371.43" fx="-703.86" fy="371.43" r="1" gradientTransform="translate(9084.18 4784.81) scale(12.88 -12.88)" xlink:href="#radial-gradient-2"/><radialGradient id="radial-gradient-5" cx="-738.77" cy="388.26" fx="-738.77" fy="388.26" r="1" gradientTransform="translate(23187.38 12205.48) scale(31.36 -31.36)" gradientUnits="userSpaceOnUse"><stop offset="0" stop-color="#ff08ff"/><stop offset=".36" stop-color="#ed0dff"/><stop offset="1" stop-color="#382aff"/></radialGradient><radialGradient id="radial-gradient-6" cx="-738.77" cy="388.26" fx="-738.77" fy="388.26" r="1" gradientTransform="translate(23187.38 12205.48) scale(31.36 -31.36)" gradientUnits="userSpaceOnUse"><stop offset="0" stop-color="#f1f"/><stop offset=".36" stop-color="#ee16ff"/><stop offset="1" stop-color="#4033ff"/></radialGradient><radialGradient id="radial-gradient-7" cx="-738.59" cy="388.18" fx="-738.59" fy="388.18" r="1" gradientTransform="translate(23009.25 12112.77) scale(31.13 -31.13)" xlink:href="#radial-gradient-5"/><radialGradient id="radial-gradient-8" cx="-738.59" cy="388.18" fx="-738.59" fy="388.18" r="1" gradientTransform="translate(23009.25 12112.77) scale(31.13 -31.13)" xlink:href="#radial-gradient-6"/><linearGradient id="linear-gradient" x1="16.33" y1="25.25" x2="38.94" y2="25.25" gradientTransform="translate(0 32) scale(1 -1)" gradientUnits="userSpaceOnUse"><stop offset="0" stop-color="#08fcff"/><stop offset="1" stop-color="#2a69ff"/></linearGradient><linearGradient id="linear-gradient-2" x1="16.33" y1="25.25" x2="38.94" y2="25.25" gradientTransform="translate(0 32) scale(1 -1)" gradientUnits="userSpaceOnUse"><stop offset="0" stop-color="#2ffcff"/><stop offset="1" stop-color="#336fff"/></linearGradient></defs><g class="cls-13"><path class="cls-10" d="M19.9,4.69C17.03.43,11.15-1.19,6.49.97,4.23,2,2.36,3.93,1.32,6.12.44,8.11,0,10.33.09,12.51.22,8.11,3.62,3.95,7.93,3.6c3.31-.27,6.24,1.5,7.54,4.67.62,1.51,1.03,4.06,1.06,4.24,0,0-.01-.02-.01-.02.05.1.09.2.13.28,1.2,2.41,4.88,1.54,5.07-1.19.18-2.41-.43-4.86-1.81-6.88h0Z"/><path class="cls-8" d="M19.9,4.69C17.03.43,11.15-1.19,6.49.97,4.23,2,2.36,3.93,1.32,6.12.44,8.11,0,10.33.09,12.51.22,8.11,3.62,3.95,7.93,3.6c3.31-.27,6.24,1.5,7.54,4.67.62,1.51,1.03,4.06,1.06,4.24,0,0-.01-.02-.01-.02.05.1.09.2.13.28,1.2,2.41,4.88,1.54,5.07-1.19.18-2.41-.43-4.86-1.81-6.88h0Z"/><path class="cls-7" d="M35.37,3.63c-.98-1.12-2.18-2.05-3.52-2.66-4.37-2.02-9.82-.72-12.85,2.97-1.04,1.16-1.83,2.56-2.25,4.13-.36,1.26-.41,2.59-.3,3.88.33,3.2,4.55,3.33,5.35.62,0-.01.01-.02.02-.03.1-.62.46-2.5.81-3.36.14-.35,0,0,0,0,1.31-3.62,4.28-5.56,6.96-5.56,5.33-.25,10.16,6.67,8.74,13.04.01,0,.21-.87.22-.91.14-.72.24-1.46.29-2.22.19-3.52-1.04-7.26-3.46-9.88h0Z"/><path class="cls-5" d="M35.37,3.63c-.98-1.12-2.18-2.05-3.52-2.66-4.37-2.02-9.82-.72-12.85,2.97-1.04,1.16-1.83,2.56-2.25,4.13-.36,1.26-.41,2.59-.3,3.88.33,3.2,4.55,3.33,5.35.62,0-.01.01-.02.02-.03.1-.62.46-2.5.81-3.36.14-.35,0,0,0,0,1.31-3.62,4.28-5.56,6.96-5.56,5.33-.25,10.16,6.67,8.74,13.04.01,0,.21-.87.22-.91.14-.72.24-1.46.29-2.22.19-3.52-1.04-7.26-3.46-9.88h0Z"/><path class="cls-4" d="M7.93,3.6C2.48,4.04-1.52,10.59.72,15.99c1.58,4.79,5.45,8.52,9.82,10.85,1.17.61,2.27-.87,1.49-1.88l-.43-.56c-1.66-2.31-3.29-4.76-4.23-7.43-1.8-4.28.34-9.11,3.78-9.11,2.92,0,3.9,2.39,5.46,4.84,0-.03-.05-.17-.07-.29-.14-.72-.55-2.85-1.07-4.14-1.3-3.17-4.22-4.94-7.54-4.67h0Z"/><path class="cls-3" d="M7.93,3.6C2.48,4.04-1.52,10.59.72,15.99c1.58,4.79,5.45,8.52,9.82,10.85,1.17.61,2.27-.87,1.49-1.88l-.43-.56c-1.66-2.31-3.29-4.76-4.23-7.43-1.8-4.28.34-9.11,3.78-9.11,2.92,0,3.9,2.39,5.46,4.84,0-.03-.05-.17-.07-.29-.14-.72-.55-2.85-1.07-4.14-1.3-3.17-4.22-4.94-7.54-4.67h0Z"/><path class="cls-2" d="M29.58,3.6c-2.68,0-5.65,1.93-6.96,5.56,0,0,.14-.35,0,0-.35.86-.7,2.74-.81,3.36,3.28-9.25,13.75-3.34,6.82,5.78-1.14,1.53-2.56,3-4.09,4.12-.46.33-.86.75-1.17,1.23-2.36,3.73,2.32,8.48,6.28,5.32,3.63-2.9,6.79-6.64,8.31-11.08,2.4-6.67-2.7-14.55-8.38-14.29Z"/><path class="cls-6" d="M29.58,3.6c-2.68,0-5.65,1.93-6.96,5.56,0,0,.14-.35,0,0-.35.86-.7,2.74-.81,3.36,3.28-9.25,13.75-3.34,6.82,5.78-1.14,1.53-2.56,3-4.09,4.12-.46.33-.86.75-1.17,1.23-2.36,3.73,2.32,8.48,6.28,5.32,3.63-2.9,6.79-6.64,8.31-11.08,2.4-6.67-2.7-14.55-8.38-14.29Z"/><path class="cls-11" d="M38.84,13.5c.07-1.62-.14-3.24-.62-4.79-.48-1.54-1.22-3-2.22-4.27-.25-.32-.52-.62-.79-.91-.27-.3-.56-.58-.86-.84-.61-.53-1.27-.99-1.98-1.37-.71-.38-1.46-.66-2.24-.86-.78-.19-1.57-.3-2.37-.32-1.6-.04-3.21.27-4.67.91-.37.16-.72.34-1.07.53-.35.19-.68.41-1.01.64-.65.47-1.25,1-1.77,1.61-.54.6-1.03,1.23-1.43,1.93-.4.69-.72,1.44-.94,2.21-.24.77-.36,1.57-.4,2.37-.02.4-.02.81,0,1.21.01.2.02.4.05.6.03.2.05.4.13.59-.08-.19-.11-.39-.14-.59-.03-.2-.04-.4-.06-.6-.03-.4-.04-.81-.02-1.21.03-.81.14-1.62.37-2.39.22-.78.53-1.53.93-2.24.4-.71.89-1.35,1.43-1.96,1.05-1.23,2.4-2.2,3.89-2.84C24.52.28,26.15-.04,27.77,0c.81.02,1.62.14,2.4.34.78.21,1.54.5,2.26.88.71.38,1.38.85,1.99,1.39.3.27.59.56.86.85.27.3.54.6.79.93.99,1.28,1.73,2.76,2.2,4.3.47,1.55.68,3.18.59,4.8h0Z"/><path class="cls-9" d="M38.84,13.5c.07-1.62-.14-3.24-.62-4.79-.48-1.54-1.22-3-2.22-4.27-.25-.32-.52-.62-.79-.91-.27-.3-.56-.58-.86-.84-.61-.53-1.27-.99-1.98-1.37-.71-.38-1.46-.66-2.24-.86-.78-.19-1.57-.3-2.37-.32-1.6-.04-3.21.27-4.67.91-.37.16-.72.34-1.07.53-.35.19-.68.41-1.01.64-.65.47-1.25,1-1.77,1.61-.54.6-1.03,1.23-1.43,1.93-.4.69-.72,1.44-.94,2.21-.24.77-.36,1.57-.4,2.37-.02.4-.02.81,0,1.21.01.2.02.4.05.6.03.2.05.4.13.59-.08-.19-.11-.39-.14-.59-.03-.2-.04-.4-.06-.6-.03-.4-.04-.81-.02-1.21.03-.81.14-1.62.37-2.39.22-.78.53-1.53.93-2.24.4-.71.89-1.35,1.43-1.96,1.05-1.23,2.4-2.2,3.89-2.84C24.52.28,26.15-.04,27.77,0c.81.02,1.62.14,2.4.34.78.21,1.54.5,2.26.88.71.38,1.38.85,1.99,1.39.3.27.59.56.86.85.27.3.54.6.79.93.99,1.28,1.73,2.76,2.2,4.3.47,1.55.68,3.18.59,4.8h0Z"/></g><path class="cls-12" d="M45.24,24.6l.05-17.71c0-.07.06-.12.12-.12l8.66,10.46,8.62-10.42s.07-.02.1-.02c.07,0,.1.04.1.09v17.71h-3.24l.05-9.07-5.64,6.64-5.5-6.67-.09,9.15-3.24-.05Z"/><path class="cls-12" d="M72.26,24.9c-1.35,0-2.56-.3-3.61-.89-1.05-.59-1.88-1.41-2.48-2.44-.6-1.03-.9-2.2-.9-3.48s.3-2.44.9-3.46c.59-1.02,1.43-1.84,2.48-2.43,1.05-.59,2.26-.89,3.61-.89s2.56.3,3.61.89c1.05.59,1.88,1.41,2.48,2.43.59,1.02.9,2.19.9,3.46s-.3,2.45-.9,3.48c-.6,1.03-1.43,1.85-2.48,2.44s-2.26.89-3.61.89ZM72.26,14.18c-1.08,0-1.99.37-2.71,1.11s-1.08,1.68-1.08,2.81c0,.75.17,1.44.49,2.04.33.6.79,1.08,1.37,1.42.58.34,1.23.52,1.94.52,1.09,0,2.01-.38,2.72-1.12.71-.75,1.07-1.71,1.07-2.85s-.36-2.09-1.07-2.82c-.71-.73-1.63-1.1-2.72-1.1Z"/><path class="cls-12" d="M81.17,24.6l.05-13.02,3.13.05-.05,2.75c.28-.77.72-1.47,1.41-2.08.68-.6,1.5-.9,2.41-.9.23,0,.45.02.66.05l-.04,3.34c-.27-.1-.59-.13-.89-.13-1.13,0-2.02.4-2.62,1.18-.61.78-.92,1.79-.92,3v5.76h-3.13Z"/><path class="cls-12" d="M93.85,24.93c-.77,0-1.49-.17-2.13-.49-.64-.32-1.17-.81-1.56-1.43-.39-.63-.59-1.37-.59-2.2,0-1.08.38-1.99,1.12-2.7.74-.71,1.77-1.15,3.04-1.3l3.87-.43.04-.28c0-.56-.23-1.02-.7-1.38-.46-.35-1.12-.53-1.98-.53-.7,0-1.4.12-2.07.36-.67.24-1.24.54-1.68.9l-.97-2.65c.54-.34,1.25-.7,2.12-1,.87-.3,1.76-.46,2.65-.46,1.83,0,3.25.44,4.23,1.3.98.86,1.47,2.04,1.47,3.52v8.51l-3.19-.05.05-1.4c-.36.46-.8.88-1.4,1.22-.6.34-1.39.52-2.34.52ZM94.43,19.2c-1.15.14-1.73.66-1.73,1.55,0,.51.17.9.52,1.17.34.27.8.41,1.37.41.88,0,1.61-.28,2.19-.83.58-.55.87-1.23.87-2.02v-.62l-3.21.34Z"/><polygon class="cls-12" points="103.29 24.6 103.34 6.81 106.47 6.86 106.42 24.6 103.29 24.6"/><path class="cls-12" d="M119.05,24.9c-.97,0-1.91-.16-2.77-.47-.87-.31-1.61-.7-2.22-1.15l1.21-2.54c1.19.86,2.48,1.28,3.78,1.28.58,0,1.05-.11,1.4-.31.36-.21.54-.52.54-.91,0-.32-.11-.58-.34-.76-.22-.18-.55-.34-.97-.46l-1.45-.43c-1.09-.32-1.99-.78-2.66-1.37-.67-.58-1-1.41-1-2.46,0-.77.21-1.47.62-2.07.41-.61,1.01-1.09,1.77-1.42.77-.34,1.67-.51,2.68-.51.89,0,1.71.12,2.44.34.73.23,1.32.5,1.76.8l-1.09,2.67c-.21-.25-.66-.47-1.25-.68-.59-.21-1.21-.32-1.86-.32-.57,0-1.03.1-1.38.29-.36.2-.54.47-.54.81,0,.29.12.52.35.68.23.16.56.3.98.44l1.63.48c1.16.35,2.03.86,2.6,1.5.57.64.85,1.46.85,2.42,0,1.25-.47,2.27-1.38,3.02-.92.75-2.17,1.13-3.71,1.13Z"/><path class="cls-12" d="M110.65,9.93c-.92,0-1.66-.71-1.66-1.59v-.16c0-.88.75-1.59,1.66-1.59s1.67.71,1.67,1.59v.16c0,.88-.75,1.59-1.67,1.59Z"/><polygon class="cls-12" points="109.04 24.6 109.09 11.58 112.22 11.63 112.17 24.6 109.04 24.6"/></svg>