<?xml version="1.0" encoding="UTF-8"?><svg id="Layer_1" xmlns="http://www.w3.org/2000/svg" xmlns:xlink="http://www.w3.org/1999/xlink" viewBox="0 0 125.11 30"><defs><style>.cls-1{fill:none;}.cls-2{fill:url(#radial-gradient-7);}.cls-3{fill:url(#radial-gradient-6);}.cls-4{fill:url(#radial-gradient-5);}.cls-5{fill:url(#radial-gradient-4);}.cls-6{fill:url(#radial-gradient-8);}.cls-7{fill:url(#radial-gradient-3);}.cls-8{fill:url(#radial-gradient-2);}.cls-9{fill:url(#linear-gradient-2);}.cls-10{fill:url(#radial-gradient);}.cls-11{fill:url(#linear-gradient);}.cls-12{clip-path:url(#clippath);}</style><clipPath id="clippath"><rect class="cls-1" x=".08" width="39" height="30"/></clipPath><radialGradient id="radial-gradient" cx="-569" cy="370.82" fx="-569" fy="370.82" r="1" gradientTransform="translate(7196.38 4678.42) scale(12.61 -12.61)" gradientUnits="userSpaceOnUse"><stop offset="0" stop-color="#08d7ff"/><stop offset="1" stop-color="#3174ff"/></radialGradient><radialGradient id="radial-gradient-2" cx="-569" cy="370.82" fx="-569" fy="370.82" r="1" gradientTransform="translate(7196.38 4678.42) scale(12.61 -12.61)" gradientUnits="userSpaceOnUse"><stop offset="0" stop-color="#11d8ff"/><stop offset="1" stop-color="#3a7aff"/></radialGradient><radialGradient id="radial-gradient-3" cx="-570.01" cy="371.43" fx="-570.01" fy="371.43" r="1" gradientTransform="translate(7360.45 4784.81) scale(12.88 -12.88)" xlink:href="#radial-gradient"/><radialGradient id="radial-gradient-4" cx="-570.01" cy="371.43" fx="-570.01" fy="371.43" r="1" gradientTransform="translate(7360.45 4784.81) scale(12.88 -12.88)" xlink:href="#radial-gradient-2"/><radialGradient id="radial-gradient-5" cx="-598.29" cy="388.26" fx="-598.29" fy="388.26" r="1" gradientTransform="translate(18782.06 12205.48) scale(31.36 -31.36)" gradientUnits="userSpaceOnUse"><stop offset="0" stop-color="#ff08ff"/><stop offset=".36" stop-color="#ed0dff"/><stop offset="1" stop-color="#382aff"/></radialGradient><radialGradient id="radial-gradient-6" cx="-598.29" cy="388.26" fx="-598.29" fy="388.26" r="1" gradientTransform="translate(18782.06 12205.48) scale(31.36 -31.36)" gradientUnits="userSpaceOnUse"><stop offset="0" stop-color="#f1f"/><stop offset=".36" stop-color="#ee16ff"/><stop offset="1" stop-color="#4033ff"/></radialGradient><radialGradient id="radial-gradient-7" cx="-598.15" cy="388.18" fx="-598.15" fy="388.18" r="1" gradientTransform="translate(18637.62 12112.77) scale(31.13 -31.13)" xlink:href="#radial-gradient-5"/><radialGradient id="radial-gradient-8" cx="-598.15" cy="388.18" fx="-598.15" fy="388.18" r="1" gradientTransform="translate(18637.62 12112.77) scale(31.13 -31.13)" xlink:href="#radial-gradient-6"/><linearGradient id="linear-gradient" x1="16.33" y1="25.25" x2="38.94" y2="25.25" gradientTransform="translate(0 32) scale(1 -1)" gradientUnits="userSpaceOnUse"><stop offset="0" stop-color="#08fcff"/><stop offset="1" stop-color="#2a69ff"/></linearGradient><linearGradient id="linear-gradient-2" x1="16.33" y1="25.25" x2="38.94" y2="25.25" gradientTransform="translate(0 32) scale(1 -1)" gradientUnits="userSpaceOnUse"><stop offset="0" stop-color="#2ffcff"/><stop offset="1" stop-color="#336fff"/></linearGradient></defs><path d="M45.54,6.79l8.57,10.42,8.55-10.42c.1-.12.29-.05.29.1v17.76h-3.29v-9.12l-5.55,6.68-5.58-6.68v9.12h-3.29V6.89c0-.16.19-.22.29-.1Z"/><path d="M68.63,24.06c-1.06-.59-1.89-1.41-2.5-2.46-.6-1.04-.9-2.21-.9-3.5s.3-2.45.9-3.49c.6-1.04,1.43-1.85,2.5-2.45,1.06-.59,2.27-.89,3.63-.89s2.57.3,3.63.89c1.06.6,1.89,1.41,2.5,2.45.6,1.04.9,2.2.9,3.49s-.3,2.46-.9,3.5c-.6,1.04-1.44,1.86-2.5,2.46-1.06.6-2.27.89-3.63.89s-2.57-.3-3.63-.89ZM74.95,20.91c.7-.74,1.06-1.68,1.06-2.82s-.35-2.07-1.06-2.79c-.71-.72-1.6-1.08-2.69-1.08s-1.96.37-2.68,1.1c-.71.73-1.07,1.66-1.07,2.78,0,.75.16,1.42.48,2.01.32.59.77,1.06,1.35,1.4.58.34,1.21.51,1.91.51,1.09,0,1.98-.37,2.69-1.11Z"/><path d="M81.17,11.58h3.19v2.8c.19-.8.63-1.5,1.32-2.11.7-.61,1.51-.92,2.45-.92.24,0,.46.02.66.05v3.39c-.32-.05-.64-.08-.94-.08-1.12,0-1.98.39-2.59,1.16s-.9,1.76-.9,2.97v5.81h-3.19v-13.07Z"/><path d="M91.7,24.48c-.65-.33-1.18-.82-1.58-1.45-.4-.64-.6-1.38-.6-2.23,0-1.1.38-2.02,1.13-2.74.76-.72,1.78-1.16,3.07-1.31l3.87-.43v-.23c0-.54-.23-.99-.68-1.34-.45-.35-1.1-.52-1.95-.52-.7,0-1.38.12-2.05.36-.67.24-1.23.54-1.67.89l-1.04-2.68c.56-.41,1.28-.76,2.15-1.07s1.76-.46,2.66-.46c1.85,0,3.27.44,4.27,1.31.99.87,1.49,2.06,1.49,3.55v8.51h-3.23v-1.45c-.27.49-.71.91-1.33,1.26s-1.4.52-2.37.52c-.78,0-1.5-.17-2.15-.5ZM96.74,21.46c.57-.54.85-1.21.85-1.99v-.56l-3.16.33c-1.12.14-1.68.64-1.68,1.5,0,.49.17.87.5,1.13.33.26.78.39,1.34.39.87,0,1.58-.27,2.15-.82Z"/><path d="M103.29,6.81h3.18v17.83h-3.18V6.81Z"/><path d="M116.26,24.48c-.87-.31-1.62-.7-2.23-1.16l1.2-2.6c1.26.83,2.53,1.25,3.82,1.25.58,0,1.03-.1,1.38-.31.34-.2.51-.49.51-.87,0-.3-.11-.55-.32-.73-.21-.18-.53-.33-.96-.45l-1.45-.43c-1.1-.32-2-.78-2.67-1.38-.68-.59-1.02-1.43-1.02-2.5,0-.78.21-1.48.62-2.1.42-.62,1.01-1.1,1.8-1.44.78-.34,1.68-.51,2.7-.51.9,0,1.72.11,2.46.34.74.23,1.33.5,1.77.8l-1.07,2.73c-.29-.22-.73-.44-1.31-.65-.59-.21-1.2-.32-1.85-.32-.56,0-1.01.09-1.35.28-.34.19-.51.44-.51.76,0,.27.11.48.33.64s.54.3.97.43l1.63.48c1.17.36,2.05.86,2.62,1.52s.87,1.47.87,2.46c0,1.27-.47,2.29-1.4,3.06s-2.18,1.15-3.75,1.15c-.99,0-1.92-.16-2.79-.47Z"/><path d="M110.65,6.55h0c.95,0,1.71.73,1.71,1.64v.16c0,.9-.77,1.64-1.71,1.64h0c-.95,0-1.71-.73-1.71-1.64v-.16c0-.9.77-1.64,1.71-1.64Z"/><rect x="109.04" y="11.58" width="3.18" height="13.07"/><g class="cls-12"><path class="cls-10" d="M19.9,4.69C17.03.43,11.15-1.19,6.49.97,4.23,2,2.36,3.93,1.32,6.12.44,8.11,0,10.33.09,12.51.22,8.11,3.62,3.95,7.93,3.6c3.31-.27,6.24,1.5,7.54,4.67.62,1.51,1.03,4.06,1.06,4.24,0,0-.01-.02-.01-.02.05.1.09.2.13.28,1.2,2.41,4.88,1.54,5.07-1.19.18-2.41-.43-4.86-1.81-6.88h0Z"/><path class="cls-8" d="M19.9,4.69C17.03.43,11.15-1.19,6.49.97,4.23,2,2.36,3.93,1.32,6.12.44,8.11,0,10.33.09,12.51.22,8.11,3.62,3.95,7.93,3.6c3.31-.27,6.24,1.5,7.54,4.67.62,1.51,1.03,4.06,1.06,4.24,0,0-.01-.02-.01-.02.05.1.09.2.13.28,1.2,2.41,4.88,1.54,5.07-1.19.18-2.41-.43-4.86-1.81-6.88h0Z"/><path class="cls-7" d="M35.37,3.63c-.98-1.12-2.18-2.05-3.52-2.66-4.37-2.02-9.82-.72-12.85,2.97-1.04,1.16-1.83,2.56-2.25,4.13-.36,1.26-.41,2.59-.3,3.88.33,3.2,4.55,3.33,5.35.62,0-.01.01-.02.02-.03.1-.62.46-2.5.81-3.36.14-.35,0,0,0,0,1.31-3.62,4.28-5.56,6.96-5.56,5.33-.25,10.16,6.67,8.74,13.04.01,0,.21-.87.22-.91.14-.72.24-1.46.29-2.22.19-3.52-1.04-7.26-3.46-9.88h0Z"/><path class="cls-5" d="M35.37,3.63c-.98-1.12-2.18-2.05-3.52-2.66-4.37-2.02-9.82-.72-12.85,2.97-1.04,1.16-1.83,2.56-2.25,4.13-.36,1.26-.41,2.59-.3,3.88.33,3.2,4.55,3.33,5.35.62,0-.01.01-.02.02-.03.1-.62.46-2.5.81-3.36.14-.35,0,0,0,0,1.31-3.62,4.28-5.56,6.96-5.56,5.33-.25,10.16,6.67,8.74,13.04.01,0,.21-.87.22-.91.14-.72.24-1.46.29-2.22.19-3.52-1.04-7.26-3.46-9.88h0Z"/><path class="cls-4" d="M7.93,3.6C2.48,4.04-1.52,10.59.72,15.99c1.58,4.79,5.45,8.52,9.82,10.85,1.17.61,2.27-.87,1.49-1.88l-.43-.56c-1.66-2.31-3.29-4.76-4.23-7.43-1.8-4.28.34-9.11,3.78-9.11,2.92,0,3.9,2.39,5.46,4.84,0-.03-.05-.17-.07-.29-.14-.72-.55-2.85-1.07-4.14-1.3-3.17-4.22-4.94-7.54-4.67h0Z"/><path class="cls-3" d="M7.93,3.6C2.48,4.04-1.52,10.59.72,15.99c1.58,4.79,5.45,8.52,9.82,10.85,1.17.61,2.27-.87,1.49-1.88l-.43-.56c-1.66-2.31-3.29-4.76-4.23-7.43-1.8-4.28.34-9.11,3.78-9.11,2.92,0,3.9,2.39,5.46,4.84,0-.03-.05-.17-.07-.29-.14-.72-.55-2.85-1.07-4.14-1.3-3.17-4.22-4.94-7.54-4.67h0Z"/><path class="cls-2" d="M29.58,3.6c-2.68,0-5.65,1.93-6.96,5.56,0,0,.14-.35,0,0-.35.86-.7,2.74-.81,3.36,3.28-9.25,13.75-3.34,6.82,5.78-1.14,1.53-2.56,3-4.09,4.12-.46.33-.86.75-1.17,1.23-2.36,3.73,2.32,8.48,6.28,5.32,3.63-2.9,6.79-6.64,8.31-11.08,2.4-6.67-2.7-14.55-8.38-14.29Z"/><path class="cls-6" d="M29.58,3.6c-2.68,0-5.65,1.93-6.96,5.56,0,0,.14-.35,0,0-.35.86-.7,2.74-.81,3.36,3.28-9.25,13.75-3.34,6.82,5.78-1.14,1.53-2.56,3-4.09,4.12-.46.33-.86.75-1.17,1.23-2.36,3.73,2.32,8.48,6.28,5.32,3.63-2.9,6.79-6.64,8.31-11.08,2.4-6.67-2.7-14.55-8.38-14.29Z"/><path class="cls-11" d="M38.84,13.5c.07-1.62-.14-3.24-.62-4.79-.48-1.54-1.22-3-2.22-4.27-.25-.32-.52-.62-.79-.91-.27-.3-.56-.58-.86-.84-.61-.53-1.27-.99-1.98-1.37-.71-.38-1.46-.66-2.24-.86-.78-.19-1.57-.3-2.37-.32-1.6-.04-3.21.27-4.67.91-.37.16-.72.34-1.07.53-.35.19-.68.41-1.01.64-.65.47-1.25,1-1.77,1.61-.54.6-1.03,1.23-1.43,1.93-.4.69-.72,1.44-.94,2.21-.24.77-.36,1.57-.4,2.37-.02.4-.02.81,0,1.21.01.2.02.4.05.6.03.2.05.4.13.59-.08-.19-.11-.39-.14-.59-.03-.2-.04-.4-.06-.6-.03-.4-.04-.81-.02-1.21.03-.81.14-1.62.37-2.39.22-.78.53-1.53.93-2.24.4-.71.89-1.35,1.43-1.96,1.05-1.23,2.4-2.2,3.89-2.84C24.52.28,26.15-.04,27.77,0c.81.02,1.62.14,2.4.34.78.21,1.54.5,2.26.88.71.38,1.38.85,1.99,1.39.3.27.59.56.86.85.27.3.54.6.79.93.99,1.28,1.73,2.76,2.2,4.3.47,1.55.68,3.18.59,4.8h0Z"/><path class="cls-9" d="M38.84,13.5c.07-1.62-.14-3.24-.62-4.79-.48-1.54-1.22-3-2.22-4.27-.25-.32-.52-.62-.79-.91-.27-.3-.56-.58-.86-.84-.61-.53-1.27-.99-1.98-1.37-.71-.38-1.46-.66-2.24-.86-.78-.19-1.57-.3-2.37-.32-1.6-.04-3.21.27-4.67.91-.37.16-.72.34-1.07.53-.35.19-.68.41-1.01.64-.65.47-1.25,1-1.77,1.61-.54.6-1.03,1.23-1.43,1.93-.4.69-.72,1.44-.94,2.21-.24.77-.36,1.57-.4,2.37-.02.4-.02.81,0,1.21.01.2.02.4.05.6.03.2.05.4.13.59-.08-.19-.11-.39-.14-.59-.03-.2-.04-.4-.06-.6-.03-.4-.04-.81-.02-1.21.03-.81.14-1.62.37-2.39.22-.78.53-1.53.93-2.24.4-.71.89-1.35,1.43-1.96,1.05-1.23,2.4-2.2,3.89-2.84C24.52.28,26.15-.04,27.77,0c.81.02,1.62.14,2.4.34.78.21,1.54.5,2.26.88.71.38,1.38.85,1.99,1.39.3.27.59.56.86.85.27.3.54.6.79.93.99,1.28,1.73,2.76,2.2,4.3.47,1.55.68,3.18.59,4.8h0Z"/></g></svg>